<?xml version="1.0" encoding="utf-8"?>
<!-- Generator: Adobe Illustrator 16.0.0, SVG Export Plug-In . SVG Version: 6.00 Build 0)  -->
<!DOCTYPE svg PUBLIC "-//W3C//DTD SVG 1.1//EN" "http://www.w3.org/Graphics/SVG/1.1/DTD/svg11.dtd">
<svg version="1.1" id="Layer_1" xmlns="http://www.w3.org/2000/svg" xmlns:xlink="http://www.w3.org/1999/xlink" x="0px" y="0px"
	 width="37px" height="18.599px" viewBox="1.958 18.234 37 18.599" enable-background="new 1.958 18.234 37 18.599"
	 xml:space="preserve">
<g>
	<g>
		<path fill="#F58423" d="M11.026,36.672l4.94-4.935c0.147-0.148,0.147-0.394,0-0.54l-3.886-3.892c-0.153-0.147-0.393-0.147-0.54,0
			l-8.833,8.827c-0.24,0.246-0.071,0.651,0.27,0.651h7.778C10.859,36.783,10.955,36.743,11.026,36.672z"/>
		<path fill="#F58423" d="M2.716,35.013l12.084-12.09c0.146-0.147,0.146-0.387,0-0.54l-3.887-3.886c-0.146-0.147-0.392-0.147-0.54,0
			l-8.206,8.195c-0.071,0.071-0.112,0.167-0.112,0.27v7.774C2.059,35.084,2.471,35.257,2.716,35.013z"/>
		<path fill="#F58423" d="M2.056,18.671v6.11c0,0.335,0.412,0.51,0.652,0.27l6.11-6.11c0.246-0.245,0.071-0.657-0.27-0.657H2.436
			C2.223,18.284,2.056,18.458,2.056,18.671z"/>
	</g>
	<path fill="#FFFFFF" d="M20.965,28.256v0.175c0,0.158,0.093,0.25,0.257,0.25h1.173v3.41c0,0.163,0.083,0.256,0.253,0.256h0.268
		c0.173,0,0.266-0.093,0.266-0.256v-3.41h1.165c0.167,0,0.25-0.092,0.25-0.25v-0.175c0-0.16-0.083-0.257-0.25-0.257h-3.121
		C21.058,27.999,20.965,28.096,20.965,28.256 M19.959,31.193c0,0.293-0.243,0.489-0.648,0.489c-0.423,0-0.738-0.218-0.88-0.308
		c-0.15-0.094-0.256-0.077-0.357,0.049l-0.13,0.201c-0.123,0.157-0.06,0.265,0.035,0.356c0.216,0.158,0.717,0.439,1.333,0.439
		c0.913,0,1.437-0.581,1.437-1.287c0-1.376-2.021-1.177-2.021-1.984c0-0.292,0.256-0.493,0.657-0.493
		c0.338,0,0.575,0.137,0.752,0.242c0.128,0.069,0.262,0.086,0.352-0.092l0.108-0.196c0.074-0.137,0.049-0.25-0.076-0.352
		c-0.188-0.135-0.607-0.327-1.123-0.327c-0.825,0-1.461,0.499-1.461,1.26C17.937,30.532,19.959,30.367,19.959,31.193 M20.388,25.86
		c0,0.365-0.229,0.63-0.629,0.63h-0.845v-1.254h0.845C20.156,25.234,20.388,25.5,20.388,25.86 M20.218,24.037
		c0,0.316-0.19,0.556-0.534,0.556h-0.771v-1.095h0.752C20.038,23.506,20.218,23.729,20.218,24.037 M20.497,24.882v-0.009
		c0.327-0.177,0.529-0.523,0.529-0.932c0-0.717-0.567-1.118-1.352-1.118h-1.295c-0.163,0-0.245,0.09-0.245,0.256v3.829
		c0,0.174,0.082,0.262,0.245,0.262h1.319c0.802,0,1.491-0.393,1.491-1.264C21.202,25.468,20.968,25.024,20.497,24.882 M23.88,24.171
		c0,0.422-0.261,0.689-0.686,0.689h-0.711v-1.354h0.592c0.225,0,0.365,0.021,0.468,0.073C23.772,23.675,23.88,23.893,23.88,24.171
		 M24.813,26.858l-0.717-1.311c-0.082-0.155-0.143-0.224-0.143-0.224v-0.013c0.459-0.183,0.72-0.671,0.72-1.187
		c0-0.583-0.274-1.002-0.725-1.186c-0.183-0.076-0.397-0.114-0.825-0.114h-1.167c-0.17,0-0.25,0.09-0.25,0.256v3.829
		c0,0.174,0.08,0.262,0.25,0.262h0.273c0.168,0,0.25-0.087,0.25-0.262v-1.365h0.768l0.761,1.447
		c0.069,0.118,0.155,0.171,0.297,0.171h0.328C24.841,27.163,24.916,27.038,24.813,26.858 M27.355,27.999h-2.09
		c-0.168,0-0.251,0.088-0.251,0.257v3.835c0,0.163,0.083,0.256,0.251,0.256h2.191c0.159,0,0.256-0.093,0.256-0.256v-0.175
		c0-0.169-0.095-0.25-0.256-0.25h-1.668V30.49h1.216c0.168,0,0.257-0.081,0.257-0.256v-0.174c0-0.158-0.086-0.251-0.257-0.251
		h-1.216v-1.131h1.566c0.171,0,0.257-0.092,0.257-0.251v-0.175C27.61,28.096,27.526,27.999,27.355,27.999 M26.197,26.91v-3.829
		c0-0.164-0.092-0.256-0.25-0.256h-0.284c-0.169,0-0.25,0.09-0.25,0.256v3.829c0,0.174,0.081,0.262,0.25,0.262h0.284
		C26.105,27.163,26.197,27.081,26.197,26.91 M30.172,23.255v-0.174c0-0.164-0.083-0.256-0.25-0.256h-3.11
		c-0.176,0-0.268,0.09-0.268,0.256v0.174c0,0.164,0.092,0.251,0.268,0.251h1.163v3.403c0,0.174,0.092,0.262,0.252,0.262h0.277
		c0.174,0,0.255-0.087,0.255-0.262v-3.403h1.177C30.089,23.506,30.172,23.418,30.172,23.255 M30.515,27.999h-2.089
		c-0.17,0-0.253,0.088-0.253,0.257v3.835c0,0.163,0.083,0.256,0.253,0.256h2.18c0.169,0,0.267-0.093,0.267-0.256v-0.175
		c0-0.169-0.096-0.25-0.267-0.25h-1.657V30.49h1.216c0.168,0,0.256-0.081,0.256-0.256v-0.174c0-0.158-0.084-0.251-0.256-0.251
		h-1.216v-1.131h1.566c0.159,0,0.257-0.092,0.257-0.251v-0.175C30.771,28.096,30.675,27.999,30.515,27.999 M31.312,26.91v-3.829
		c0-0.164-0.083-0.256-0.252-0.256h-0.283c-0.157,0-0.25,0.09-0.25,0.256v3.829c0,0.174,0.093,0.262,0.25,0.262h0.283
		C31.229,27.163,31.312,27.081,31.312,26.91 M31.923,27.999h-0.284c-0.155,0-0.248,0.088-0.248,0.257v3.835
		c0,0.163,0.093,0.256,0.248,0.256h2.155c0.174,0,0.256-0.093,0.256-0.256v-0.175c0-0.169-0.082-0.25-0.256-0.25h-1.619v-3.41
		C32.177,28.096,32.097,27.999,31.923,27.999 M32.72,23.966c0-0.292,0.257-0.488,0.668-0.488c0.333,0,0.574,0.137,0.752,0.243
		c0.124,0.063,0.256,0.09,0.341-0.087l0.109-0.207c0.073-0.131,0.059-0.246-0.076-0.346c-0.184-0.131-0.609-0.327-1.119-0.327
		c-0.824,0-1.466,0.493-1.466,1.259c0,1.352,2.031,1.183,2.031,2.009c0,0.292-0.247,0.493-0.659,0.493
		c-0.418,0-0.733-0.218-0.876-0.314c-0.148-0.086-0.255-0.081-0.355,0.055l-0.137,0.196c-0.117,0.163-0.056,0.27,0.035,0.352
		c0.215,0.164,0.782,0.444,1.397,0.444c0.918,0,1.372-0.586,1.372-1.281C34.754,24.574,32.72,24.784,32.72,23.966 M38.859,26.91
		v-3.829c0-0.164-0.081-0.256-0.25-0.256h-0.276c-0.166,0-0.257,0.09-0.257,0.256v1.584h-1.987v-1.584
		c0-0.164-0.093-0.256-0.251-0.256h-0.284c-0.169,0-0.25,0.09-0.25,0.256v3.829c0,0.174,0.081,0.262,0.25,0.262h0.284
		c0.158,0,0.251-0.087,0.251-0.262v-1.564h1.984v1.564c0,0.174,0.092,0.262,0.256,0.262h0.276
		C38.778,27.163,38.859,27.081,38.859,26.91"/>
</g>
</svg>
